<mxfile host="app.diagrams.net" modified="2023-10-08T16:04:29.495Z" agent="Mozilla/5.0 (Windows NT 10.0; Win64; x64) AppleWebKit/537.36 (KHTML, like Gecko) Chrome/117.0.0.0 Safari/537.36 Edg/117.0.2045.47" etag="7PFu-otd92R3OufXV7E7" version="22.0.4" type="google">
  <diagram name="Page-1" id="3zLpuXAP-YCl_T63zT9j">
    <mxGraphModel grid="1" page="1" gridSize="10" guides="1" tooltips="1" connect="1" arrows="1" fold="1" pageScale="1" pageWidth="850" pageHeight="1100" math="0" shadow="0">
      <root>
        <mxCell id="0" />
        <mxCell id="1" parent="0" />
        <mxCell id="WNfm-_aolDYGCpfeILNF-4" value="&lt;font style=&quot;font-size: 14px;&quot;&gt;&lt;b&gt;Sector and region level ESG data sources&lt;/b&gt;&lt;/font&gt;" style="rounded=1;whiteSpace=wrap;html=1;" vertex="1" parent="1">
          <mxGeometry x="60" y="140" width="120" height="60" as="geometry" />
        </mxCell>
        <mxCell id="WNfm-_aolDYGCpfeILNF-5" value="&lt;font style=&quot;font-size: 14px;&quot;&gt;&lt;b&gt;Open ESG data sources&lt;/b&gt;&lt;/font&gt;" style="rounded=1;whiteSpace=wrap;html=1;" vertex="1" parent="1">
          <mxGeometry x="60" y="280" width="120" height="60" as="geometry" />
        </mxCell>
        <mxCell id="WNfm-_aolDYGCpfeILNF-6" value="&lt;font style=&quot;font-size: 14px;&quot;&gt;&lt;b&gt;Sustainability &lt;br&gt;Reports&lt;/b&gt;&lt;/font&gt;" style="rounded=1;whiteSpace=wrap;html=1;" vertex="1" parent="1">
          <mxGeometry x="60" y="360" width="120" height="60" as="geometry" />
        </mxCell>
        <mxCell id="WNfm-_aolDYGCpfeILNF-7" value="" style="endArrow=none;dashed=1;html=1;rounded=0;" edge="1" parent="1">
          <mxGeometry width="50" height="50" relative="1" as="geometry">
            <mxPoint x="40" y="120" as="sourcePoint" />
            <mxPoint x="40" y="120" as="targetPoint" />
            <Array as="points">
              <mxPoint x="200" y="120" />
              <mxPoint x="200" y="440" />
              <mxPoint x="40" y="440" />
            </Array>
          </mxGeometry>
        </mxCell>
        <mxCell id="WNfm-_aolDYGCpfeILNF-11" value="" style="endArrow=classic;html=1;rounded=0;entryX=0;entryY=0.25;entryDx=0;entryDy=0;" edge="1" parent="1">
          <mxGeometry width="50" height="50" relative="1" as="geometry">
            <mxPoint x="130" y="120" as="sourcePoint" />
            <mxPoint x="300" y="42" as="targetPoint" />
            <Array as="points">
              <mxPoint x="130" y="42" />
            </Array>
          </mxGeometry>
        </mxCell>
        <mxCell id="WNfm-_aolDYGCpfeILNF-13" value="&lt;font style=&quot;font-size: 14px;&quot;&gt;&lt;b&gt;Data Source Quality Management&lt;/b&gt;&lt;/font&gt;" style="rounded=1;whiteSpace=wrap;html=1;" vertex="1" parent="1">
          <mxGeometry x="300" y="7" width="170" height="70" as="geometry" />
        </mxCell>
        <mxCell id="WNfm-_aolDYGCpfeILNF-14" value="&lt;font style=&quot;font-size: 14px;&quot;&gt;&lt;b&gt;API handler&lt;/b&gt;&lt;/font&gt;" style="rounded=1;whiteSpace=wrap;html=1;" vertex="1" parent="1">
          <mxGeometry x="300" y="320" width="120" height="60" as="geometry" />
        </mxCell>
        <mxCell id="WNfm-_aolDYGCpfeILNF-15" value="&lt;font style=&quot;font-size: 14px;&quot;&gt;&lt;b&gt;Data dump&lt;/b&gt;&lt;/font&gt;" style="rounded=1;whiteSpace=wrap;html=1;" vertex="1" parent="1">
          <mxGeometry x="300" y="240" width="120" height="60" as="geometry" />
        </mxCell>
        <mxCell id="WNfm-_aolDYGCpfeILNF-16" value="" style="endArrow=classic;html=1;rounded=0;exitX=1;exitY=0.5;exitDx=0;exitDy=0;entryX=0.5;entryY=0;entryDx=0;entryDy=0;" edge="1" parent="1" source="WNfm-_aolDYGCpfeILNF-4" target="WNfm-_aolDYGCpfeILNF-15">
          <mxGeometry width="50" height="50" relative="1" as="geometry">
            <mxPoint x="290" y="230" as="sourcePoint" />
            <mxPoint x="260" y="270" as="targetPoint" />
            <Array as="points">
              <mxPoint x="260" y="170" />
              <mxPoint x="360" y="170" />
            </Array>
          </mxGeometry>
        </mxCell>
        <mxCell id="WNfm-_aolDYGCpfeILNF-17" value="" style="endArrow=classic;html=1;rounded=0;exitX=1;exitY=0.5;exitDx=0;exitDy=0;" edge="1" parent="1" source="WNfm-_aolDYGCpfeILNF-5">
          <mxGeometry width="50" height="50" relative="1" as="geometry">
            <mxPoint x="250" y="400" as="sourcePoint" />
            <mxPoint x="300" y="350" as="targetPoint" />
            <Array as="points">
              <mxPoint x="230" y="310" />
              <mxPoint x="230" y="350" />
            </Array>
          </mxGeometry>
        </mxCell>
        <mxCell id="WNfm-_aolDYGCpfeILNF-22" value="" style="endArrow=none;html=1;rounded=0;" edge="1" parent="1">
          <mxGeometry width="50" height="50" relative="1" as="geometry">
            <mxPoint x="280" y="207" as="sourcePoint" />
            <mxPoint x="280" y="207" as="targetPoint" />
            <Array as="points">
              <mxPoint x="440" y="207" />
              <mxPoint x="440" y="407" />
              <mxPoint x="280" y="407" />
            </Array>
          </mxGeometry>
        </mxCell>
        <mxCell id="WNfm-_aolDYGCpfeILNF-23" value="&lt;font style=&quot;font-size: 14px;&quot;&gt;&lt;b&gt;Data quality scoring&lt;/b&gt;&lt;/font&gt;" style="rounded=1;whiteSpace=wrap;html=1;" vertex="1" parent="1">
          <mxGeometry x="840" y="115" width="190" height="55" as="geometry" />
        </mxCell>
        <mxCell id="WNfm-_aolDYGCpfeILNF-24" value="&lt;font style=&quot;font-size: 14px;&quot;&gt;&lt;b&gt;Data governance&lt;/b&gt;&lt;/font&gt;" style="rounded=1;whiteSpace=wrap;html=1;" vertex="1" parent="1">
          <mxGeometry x="570" y="50" width="230" height="60" as="geometry" />
        </mxCell>
        <mxCell id="WNfm-_aolDYGCpfeILNF-26" value="&lt;font style=&quot;font-size: 16px;&quot;&gt;&lt;b style=&quot;&quot;&gt;Data quality score&lt;/b&gt;&lt;/font&gt;" style="shape=card;whiteSpace=wrap;html=1;" vertex="1" parent="1">
          <mxGeometry x="1510" y="70" width="200" height="60" as="geometry" />
        </mxCell>
        <mxCell id="WNfm-_aolDYGCpfeILNF-27" value="&lt;font style=&quot;font-size: 16px;&quot;&gt;&lt;b&gt;ESG Performance&lt;/b&gt;&lt;/font&gt;" style="shape=card;whiteSpace=wrap;html=1;" vertex="1" parent="1">
          <mxGeometry x="1510" y="170" width="200" height="60" as="geometry" />
        </mxCell>
        <mxCell id="WNfm-_aolDYGCpfeILNF-28" value="&lt;font style=&quot;font-size: 14px;&quot;&gt;&lt;b&gt;Data processing&lt;/b&gt;&lt;/font&gt;" style="rounded=1;whiteSpace=wrap;html=1;" vertex="1" parent="1">
          <mxGeometry x="500" y="280" width="140" height="60" as="geometry" />
        </mxCell>
        <mxCell id="WNfm-_aolDYGCpfeILNF-29" value="&lt;font style=&quot;font-size: 14px;&quot;&gt;&lt;b&gt;Is company&amp;nbsp;&lt;br&gt;level data&lt;br&gt;available?&lt;/b&gt;&lt;/font&gt;" style="rhombus;whiteSpace=wrap;html=1;" vertex="1" parent="1">
          <mxGeometry x="690" y="265" width="170" height="90" as="geometry" />
        </mxCell>
        <mxCell id="WNfm-_aolDYGCpfeILNF-30" value="&lt;font style=&quot;font-size: 16px;&quot;&gt;&lt;b&gt;Pick the peer group&amp;nbsp;&lt;br&gt;average or sector level &lt;br&gt;ESG data&lt;/b&gt;&lt;/font&gt;" style="rounded=1;whiteSpace=wrap;html=1;" vertex="1" parent="1">
          <mxGeometry x="910" y="270" width="210" height="80" as="geometry" />
        </mxCell>
        <mxCell id="WNfm-_aolDYGCpfeILNF-31" value="&lt;font style=&quot;font-size: 16px;&quot;&gt;&lt;b&gt;Abstract to&lt;br&gt;company level&lt;/b&gt;&lt;/font&gt;" style="rounded=1;whiteSpace=wrap;html=1;" vertex="1" parent="1">
          <mxGeometry x="1160" y="280" width="200" height="60" as="geometry" />
        </mxCell>
        <mxCell id="WNfm-_aolDYGCpfeILNF-32" value="&lt;font style=&quot;font-size: 16px;&quot;&gt;&lt;b&gt;NLP based AI/ML-powered document handler&amp;nbsp;&lt;/b&gt;&lt;/font&gt;" style="rounded=1;whiteSpace=wrap;html=1;" vertex="1" parent="1">
          <mxGeometry x="270" y="440" width="910" height="60" as="geometry" />
        </mxCell>
        <mxCell id="WNfm-_aolDYGCpfeILNF-34" value="&lt;font style=&quot;font-size: 14px;&quot;&gt;&lt;b&gt;S &amp;amp; P 500 &lt;br&gt;Companies&lt;/b&gt;&lt;/font&gt;" style="rounded=1;whiteSpace=wrap;html=1;" vertex="1" parent="1">
          <mxGeometry x="60" y="210" width="120" height="60" as="geometry" />
        </mxCell>
        <mxCell id="WNfm-_aolDYGCpfeILNF-35" value="" style="endArrow=classic;html=1;rounded=0;exitX=1;exitY=0.5;exitDx=0;exitDy=0;entryX=0;entryY=0.5;entryDx=0;entryDy=0;" edge="1" parent="1" source="WNfm-_aolDYGCpfeILNF-34" target="WNfm-_aolDYGCpfeILNF-15">
          <mxGeometry width="50" height="50" relative="1" as="geometry">
            <mxPoint x="510" y="270" as="sourcePoint" />
            <mxPoint x="240" y="280" as="targetPoint" />
            <Array as="points">
              <mxPoint x="240" y="240" />
              <mxPoint x="240" y="270" />
            </Array>
          </mxGeometry>
        </mxCell>
        <mxCell id="WNfm-_aolDYGCpfeILNF-36" value="" style="endArrow=classic;html=1;rounded=0;exitX=1;exitY=0.5;exitDx=0;exitDy=0;entryX=-0.007;entryY=0.38;entryDx=0;entryDy=0;entryPerimeter=0;" edge="1" parent="1" source="WNfm-_aolDYGCpfeILNF-15" target="WNfm-_aolDYGCpfeILNF-28">
          <mxGeometry width="50" height="50" relative="1" as="geometry">
            <mxPoint x="510" y="270" as="sourcePoint" />
            <mxPoint x="470" y="310" as="targetPoint" />
            <Array as="points">
              <mxPoint x="470" y="270" />
              <mxPoint x="470" y="303" />
            </Array>
          </mxGeometry>
        </mxCell>
        <mxCell id="WNfm-_aolDYGCpfeILNF-37" value="" style="endArrow=classic;html=1;rounded=0;exitX=1;exitY=0.5;exitDx=0;exitDy=0;entryX=-0.01;entryY=0.647;entryDx=0;entryDy=0;entryPerimeter=0;" edge="1" parent="1" source="WNfm-_aolDYGCpfeILNF-14" target="WNfm-_aolDYGCpfeILNF-28">
          <mxGeometry width="50" height="50" relative="1" as="geometry">
            <mxPoint x="510" y="270" as="sourcePoint" />
            <mxPoint x="470" y="320" as="targetPoint" />
            <Array as="points">
              <mxPoint x="470" y="350" />
              <mxPoint x="470" y="320" />
            </Array>
          </mxGeometry>
        </mxCell>
        <mxCell id="WNfm-_aolDYGCpfeILNF-38" value="" style="endArrow=classic;html=1;rounded=0;" edge="1" parent="1" source="WNfm-_aolDYGCpfeILNF-28">
          <mxGeometry width="50" height="50" relative="1" as="geometry">
            <mxPoint x="640" y="360" as="sourcePoint" />
            <mxPoint x="690" y="310" as="targetPoint" />
          </mxGeometry>
        </mxCell>
        <mxCell id="WNfm-_aolDYGCpfeILNF-40" value="" style="endArrow=classic;html=1;rounded=0;exitX=1;exitY=0.75;exitDx=0;exitDy=0;entryX=0;entryY=0.5;entryDx=0;entryDy=0;" edge="1" parent="1" source="WNfm-_aolDYGCpfeILNF-14">
          <mxGeometry width="50" height="50" relative="1" as="geometry">
            <mxPoint x="492" y="375" as="sourcePoint" />
            <mxPoint x="910" y="320" as="targetPoint" />
            <Array as="points">
              <mxPoint x="872" y="370" />
              <mxPoint x="872" y="320" />
            </Array>
          </mxGeometry>
        </mxCell>
        <mxCell id="WNfm-_aolDYGCpfeILNF-41" value="" style="endArrow=classic;html=1;rounded=0;entryX=0;entryY=0.5;entryDx=0;entryDy=0;" edge="1" parent="1" target="WNfm-_aolDYGCpfeILNF-24">
          <mxGeometry width="50" height="50" relative="1" as="geometry">
            <mxPoint x="440" y="220" as="sourcePoint" />
            <mxPoint x="510" y="120" as="targetPoint" />
            <Array as="points">
              <mxPoint x="510" y="220" />
              <mxPoint x="510" y="80" />
            </Array>
          </mxGeometry>
        </mxCell>
        <mxCell id="WNfm-_aolDYGCpfeILNF-42" value="" style="endArrow=classic;html=1;rounded=0;exitX=1;exitY=0.5;exitDx=0;exitDy=0;entryX=0;entryY=0.5;entryDx=0;entryDy=0;" edge="1" parent="1" source="WNfm-_aolDYGCpfeILNF-29" target="WNfm-_aolDYGCpfeILNF-30">
          <mxGeometry width="50" height="50" relative="1" as="geometry">
            <mxPoint x="860" y="260" as="sourcePoint" />
            <mxPoint x="890" y="260" as="targetPoint" />
          </mxGeometry>
        </mxCell>
        <mxCell id="WNfm-_aolDYGCpfeILNF-43" value="" style="endArrow=classic;html=1;rounded=0;exitX=1;exitY=0.5;exitDx=0;exitDy=0;entryX=0;entryY=0.5;entryDx=0;entryDy=0;" edge="1" parent="1" source="WNfm-_aolDYGCpfeILNF-30" target="WNfm-_aolDYGCpfeILNF-31">
          <mxGeometry width="50" height="50" relative="1" as="geometry">
            <mxPoint x="940" y="270" as="sourcePoint" />
            <mxPoint x="990" y="220" as="targetPoint" />
          </mxGeometry>
        </mxCell>
        <mxCell id="WNfm-_aolDYGCpfeILNF-44" value="" style="endArrow=classic;html=1;rounded=0;entryX=0.55;entryY=0;entryDx=0;entryDy=0;entryPerimeter=0;exitX=0.995;exitY=0.325;exitDx=0;exitDy=0;exitPerimeter=0;" edge="1" parent="1" source="WNfm-_aolDYGCpfeILNF-13" target="WNfm-_aolDYGCpfeILNF-26">
          <mxGeometry width="50" height="50" relative="1" as="geometry">
            <mxPoint x="470" y="39" as="sourcePoint" />
            <mxPoint x="1265" y="69" as="targetPoint" />
            <Array as="points">
              <mxPoint x="860" y="30" />
              <mxPoint x="1260" y="30" />
              <mxPoint x="1620" y="30" />
            </Array>
          </mxGeometry>
        </mxCell>
        <mxCell id="WNfm-_aolDYGCpfeILNF-46" value="" style="endArrow=classic;html=1;rounded=0;exitX=0.5;exitY=1;exitDx=0;exitDy=0;exitPerimeter=0;" edge="1" parent="1" source="WNfm-_aolDYGCpfeILNF-26">
          <mxGeometry width="50" height="50" relative="1" as="geometry">
            <mxPoint x="1610.6599999999999" y="130" as="sourcePoint" />
            <mxPoint x="1610" y="170" as="targetPoint" />
            <Array as="points">
              <mxPoint x="1610" y="160" />
            </Array>
          </mxGeometry>
        </mxCell>
        <mxCell id="WNfm-_aolDYGCpfeILNF-47" value="" style="endArrow=none;dashed=1;html=1;dashPattern=1 3;strokeWidth=2;rounded=0;" edge="1" parent="1">
          <mxGeometry width="50" height="50" relative="1" as="geometry">
            <mxPoint x="1755" y="350" as="sourcePoint" />
            <mxPoint x="1755" y="350" as="targetPoint" />
            <Array as="points">
              <mxPoint x="1755" y="50" />
              <mxPoint x="1490" y="50" />
              <mxPoint x="1490" y="350" />
              <mxPoint x="1620" y="350" />
            </Array>
          </mxGeometry>
        </mxCell>
        <mxCell id="WNfm-_aolDYGCpfeILNF-49" value="" style="endArrow=classic;html=1;rounded=0;exitX=1;exitY=0.5;exitDx=0;exitDy=0;" edge="1" parent="1" source="WNfm-_aolDYGCpfeILNF-24">
          <mxGeometry width="50" height="50" relative="1" as="geometry">
            <mxPoint x="610" y="130" as="sourcePoint" />
            <mxPoint x="1490" y="80" as="targetPoint" />
          </mxGeometry>
        </mxCell>
        <mxCell id="WNfm-_aolDYGCpfeILNF-50" value="" style="endArrow=classic;html=1;rounded=0;exitX=1;exitY=0.5;exitDx=0;exitDy=0;entryX=0;entryY=0;entryDx=0;entryDy=45;entryPerimeter=0;" edge="1" parent="1" source="WNfm-_aolDYGCpfeILNF-23" target="WNfm-_aolDYGCpfeILNF-26">
          <mxGeometry width="50" height="50" relative="1" as="geometry">
            <mxPoint x="670" y="140" as="sourcePoint" />
            <mxPoint x="1110" y="120" as="targetPoint" />
            <Array as="points">
              <mxPoint x="1110" y="143" />
              <mxPoint x="1110" y="115" />
            </Array>
          </mxGeometry>
        </mxCell>
        <mxCell id="WNfm-_aolDYGCpfeILNF-52" value="" style="endArrow=classic;html=1;rounded=0;entryX=0;entryY=0.25;entryDx=0;entryDy=0;exitX=1;exitY=0.25;exitDx=0;exitDy=0;" edge="1" parent="1" source="WNfm-_aolDYGCpfeILNF-28" target="WNfm-_aolDYGCpfeILNF-23">
          <mxGeometry width="50" height="50" relative="1" as="geometry">
            <mxPoint x="640" y="310" as="sourcePoint" />
            <mxPoint x="840" y="138.75" as="targetPoint" />
            <Array as="points">
              <mxPoint x="670" y="295" />
              <mxPoint x="670" y="130" />
            </Array>
          </mxGeometry>
        </mxCell>
        <mxCell id="WNfm-_aolDYGCpfeILNF-53" value="" style="endArrow=classic;html=1;rounded=0;entryX=0;entryY=0.646;entryDx=0;entryDy=0;exitX=0.586;exitY=0.089;exitDx=0;exitDy=0;exitPerimeter=0;entryPerimeter=0;" edge="1" parent="1" source="WNfm-_aolDYGCpfeILNF-29" target="WNfm-_aolDYGCpfeILNF-23">
          <mxGeometry width="50" height="50" relative="1" as="geometry">
            <mxPoint x="789" y="270" as="sourcePoint" />
            <mxPoint x="840" y="155.07" as="targetPoint" />
            <Array as="points">
              <mxPoint x="790" y="150" />
            </Array>
          </mxGeometry>
        </mxCell>
        <mxCell id="WNfm-_aolDYGCpfeILNF-54" value="&lt;b&gt;&lt;font style=&quot;font-size: 14px;&quot;&gt;No&lt;/font&gt;&lt;/b&gt;" style="text;html=1;align=center;verticalAlign=middle;resizable=0;points=[];autosize=1;strokeColor=none;fillColor=none;" vertex="1" parent="1">
          <mxGeometry x="860" y="280" width="40" height="30" as="geometry" />
        </mxCell>
        <mxCell id="WNfm-_aolDYGCpfeILNF-55" value="&lt;font style=&quot;font-size: 14px;&quot;&gt;&lt;b&gt;Yes&lt;/b&gt;&lt;/font&gt;" style="text;html=1;align=center;verticalAlign=middle;resizable=0;points=[];autosize=1;strokeColor=none;fillColor=none;" vertex="1" parent="1">
          <mxGeometry x="735" y="220" width="50" height="30" as="geometry" />
        </mxCell>
        <mxCell id="WNfm-_aolDYGCpfeILNF-56" value="&lt;font style=&quot;font-size: 14px;&quot;&gt;&lt;b&gt;Level of data&lt;/b&gt;&lt;/font&gt;" style="text;html=1;align=center;verticalAlign=middle;resizable=0;points=[];autosize=1;strokeColor=none;fillColor=none;" vertex="1" parent="1">
          <mxGeometry x="730" y="127.5" width="110" height="30" as="geometry" />
        </mxCell>
        <mxCell id="WNfm-_aolDYGCpfeILNF-64" value="" style="endArrow=classic;html=1;rounded=0;exitX=0.313;exitY=0.014;exitDx=0;exitDy=0;exitPerimeter=0;entryX=0.393;entryY=1.005;entryDx=0;entryDy=0;entryPerimeter=0;" edge="1" parent="1" source="WNfm-_aolDYGCpfeILNF-32" target="WNfm-_aolDYGCpfeILNF-28">
          <mxGeometry width="50" height="50" relative="1" as="geometry">
            <mxPoint x="950" y="120" as="sourcePoint" />
            <mxPoint x="1000" y="70" as="targetPoint" />
          </mxGeometry>
        </mxCell>
        <mxCell id="WNfm-_aolDYGCpfeILNF-65" value="" style="endArrow=classic;html=1;rounded=0;entryX=0.5;entryY=1;entryDx=0;entryDy=0;" edge="1" parent="1" target="WNfm-_aolDYGCpfeILNF-30">
          <mxGeometry width="50" height="50" relative="1" as="geometry">
            <mxPoint x="1015" y="440" as="sourcePoint" />
            <mxPoint x="1010" y="360" as="targetPoint" />
          </mxGeometry>
        </mxCell>
        <mxCell id="WNfm-_aolDYGCpfeILNF-66" value="&lt;font style=&quot;font-size: 14px;&quot;&gt;&lt;b style=&quot;&quot;&gt;Graphs&lt;/b&gt;&lt;/font&gt;" style="ellipse;whiteSpace=wrap;html=1;aspect=fixed;" vertex="1" parent="1">
          <mxGeometry x="411" y="606" width="89" height="89" as="geometry" />
        </mxCell>
        <mxCell id="WNfm-_aolDYGCpfeILNF-67" value="&lt;font style=&quot;font-size: 14px;&quot;&gt;&lt;b&gt;Infographics&lt;/b&gt;&lt;/font&gt;" style="ellipse;whiteSpace=wrap;html=1;aspect=fixed;" vertex="1" parent="1">
          <mxGeometry x="520" y="605" width="90" height="90" as="geometry" />
        </mxCell>
        <mxCell id="WNfm-_aolDYGCpfeILNF-68" value="&lt;font style=&quot;font-size: 14px;&quot;&gt;&lt;b&gt;Tabular&amp;nbsp;&lt;br&gt;data&lt;/b&gt;&lt;/font&gt;" style="ellipse;whiteSpace=wrap;html=1;aspect=fixed;" vertex="1" parent="1">
          <mxGeometry x="631" y="605.5" width="89" height="89" as="geometry" />
        </mxCell>
        <mxCell id="WNfm-_aolDYGCpfeILNF-69" value="&lt;font style=&quot;font-size: 16px;&quot;&gt;&lt;b&gt;Data &lt;br&gt;Representations&lt;/b&gt;&lt;/font&gt;" style="rounded=1;whiteSpace=wrap;html=1;" vertex="1" parent="1">
          <mxGeometry x="140" y="600" width="229" height="100" as="geometry" />
        </mxCell>
        <mxCell id="WNfm-_aolDYGCpfeILNF-70" value="" style="endArrow=none;dashed=1;html=1;dashPattern=1 3;strokeWidth=2;rounded=0;exitX=0.921;exitY=-0.01;exitDx=0;exitDy=0;exitPerimeter=0;" edge="1" parent="1" source="WNfm-_aolDYGCpfeILNF-69">
          <mxGeometry width="50" height="50" relative="1" as="geometry">
            <mxPoint x="352" y="600" as="sourcePoint" />
            <mxPoint x="340" y="700" as="targetPoint" />
            <Array as="points">
              <mxPoint x="750" y="600" />
              <mxPoint x="750" y="700" />
            </Array>
          </mxGeometry>
        </mxCell>
        <mxCell id="WNfm-_aolDYGCpfeILNF-71" value="" style="endArrow=classic;html=1;rounded=0;entryX=0.321;entryY=1.01;entryDx=0;entryDy=0;entryPerimeter=0;" edge="1" parent="1" target="WNfm-_aolDYGCpfeILNF-32">
          <mxGeometry width="50" height="50" relative="1" as="geometry">
            <mxPoint x="562" y="600" as="sourcePoint" />
            <mxPoint x="470" y="550" as="targetPoint" />
          </mxGeometry>
        </mxCell>
        <mxCell id="WNfm-_aolDYGCpfeILNF-74" value="" style="endArrow=none;html=1;rounded=0;" edge="1" parent="1">
          <mxGeometry width="50" height="50" relative="1" as="geometry">
            <mxPoint x="1440" y="-10" as="sourcePoint" />
            <mxPoint x="1440" y="-10" as="targetPoint" />
            <Array as="points">
              <mxPoint x="220" y="-10" />
              <mxPoint x="220" y="550" />
              <mxPoint x="1440" y="550" />
            </Array>
          </mxGeometry>
        </mxCell>
        <mxCell id="WNfm-_aolDYGCpfeILNF-76" value="" style="endArrow=classic;html=1;rounded=0;exitX=1;exitY=0.5;exitDx=0;exitDy=0;entryX=0;entryY=0.5;entryDx=0;entryDy=0;" edge="1" parent="1" source="WNfm-_aolDYGCpfeILNF-6" target="WNfm-_aolDYGCpfeILNF-32">
          <mxGeometry width="50" height="50" relative="1" as="geometry">
            <mxPoint x="390" y="370" as="sourcePoint" />
            <mxPoint x="440" y="320" as="targetPoint" />
            <Array as="points">
              <mxPoint x="230" y="390" />
              <mxPoint x="230" y="470" />
            </Array>
          </mxGeometry>
        </mxCell>
        <mxCell id="EHBaFPSfwcnJBEsVQSFQ-1" value="&lt;font style=&quot;font-size: 14px;&quot;&gt;&lt;b&gt;Source of data&lt;/b&gt;&lt;/font&gt;" style="text;html=1;align=center;verticalAlign=middle;resizable=0;points=[];autosize=1;strokeColor=none;fillColor=none;" vertex="1" parent="1">
          <mxGeometry x="715" y="100" width="120" height="30" as="geometry" />
        </mxCell>
        <mxCell id="EHBaFPSfwcnJBEsVQSFQ-3" value="" style="endArrow=classic;html=1;rounded=0;exitX=1.106;exitY=1.159;exitDx=0;exitDy=0;exitPerimeter=0;" edge="1" parent="1">
          <mxGeometry width="50" height="50" relative="1" as="geometry">
            <mxPoint x="775.24" y="264.77" as="sourcePoint" />
            <mxPoint x="891" y="210" as="targetPoint" />
            <Array as="points">
              <mxPoint x="775" y="210" />
            </Array>
          </mxGeometry>
        </mxCell>
        <mxCell id="EHBaFPSfwcnJBEsVQSFQ-4" value="&lt;font style=&quot;font-size: 14px;&quot;&gt;&lt;b&gt;Get Stock&amp;nbsp;&lt;br&gt;details&lt;/b&gt;&lt;/font&gt;" style="rounded=1;whiteSpace=wrap;html=1;" vertex="1" parent="1">
          <mxGeometry x="890" y="190" width="130" height="40" as="geometry" />
        </mxCell>
        <mxCell id="EHBaFPSfwcnJBEsVQSFQ-5" value="" style="endArrow=classic;html=1;rounded=0;exitX=1;exitY=0.5;exitDx=0;exitDy=0;entryX=0;entryY=0.667;entryDx=0;entryDy=0;entryPerimeter=0;" edge="1" parent="1" source="EHBaFPSfwcnJBEsVQSFQ-4" target="WNfm-_aolDYGCpfeILNF-27">
          <mxGeometry width="50" height="50" relative="1" as="geometry">
            <mxPoint x="1060" y="211.25" as="sourcePoint" />
            <mxPoint x="1160" y="210" as="targetPoint" />
          </mxGeometry>
        </mxCell>
        <mxCell id="DuLdiJl8xOO8PAW6Iu-s-2" value="&lt;font style=&quot;font-size: 14px;&quot;&gt;&lt;b&gt;INPUT&lt;/b&gt;&lt;/font&gt;" style="text;html=1;align=center;verticalAlign=middle;resizable=0;points=[];autosize=1;strokeColor=none;fillColor=none;" vertex="1" parent="1">
          <mxGeometry x="60" y="90" width="70" height="30" as="geometry" />
        </mxCell>
        <mxCell id="DuLdiJl8xOO8PAW6Iu-s-3" value="&lt;font style=&quot;font-size: 16px;&quot;&gt;&lt;b style=&quot;&quot;&gt;OUTPUT&lt;/b&gt;&lt;/font&gt;" style="text;html=1;align=center;verticalAlign=middle;resizable=0;points=[];autosize=1;strokeColor=none;fillColor=none;" vertex="1" parent="1">
          <mxGeometry x="1620" y="20" width="90" height="30" as="geometry" />
        </mxCell>
        <mxCell id="DuLdiJl8xOO8PAW6Iu-s-4" value="&lt;font style=&quot;font-size: 14px;&quot;&gt;&lt;b&gt;PROCESSING&lt;/b&gt;&lt;/font&gt;" style="text;html=1;align=center;verticalAlign=middle;resizable=0;points=[];autosize=1;strokeColor=none;fillColor=none;" vertex="1" parent="1">
          <mxGeometry x="570" y="-40" width="120" height="30" as="geometry" />
        </mxCell>
        <mxCell id="nkCtz0BHWmrwTGXpoAii-5" value="&lt;font style=&quot;font-size: 14px;&quot;&gt;&lt;b&gt;INPUT&lt;/b&gt;&lt;/font&gt;" style="text;html=1;align=center;verticalAlign=middle;resizable=0;points=[];autosize=1;strokeColor=none;fillColor=none;" vertex="1" parent="1">
          <mxGeometry x="490" y="570" width="70" height="30" as="geometry" />
        </mxCell>
        <mxCell id="SjWQLmBXlMWJYxcjkjNw-1" value="&lt;span style=&quot;font-size: 16px;&quot;&gt;&lt;b&gt;Graphical &lt;br&gt;Representation &lt;br&gt;of Stocks&lt;/b&gt;&lt;/span&gt;" style="shape=card;whiteSpace=wrap;html=1;" vertex="1" parent="1">
          <mxGeometry x="1510" y="265" width="200" height="60" as="geometry" />
        </mxCell>
        <mxCell id="SjWQLmBXlMWJYxcjkjNw-2" value="" style="endArrow=classic;html=1;rounded=0;exitX=0.5;exitY=1;exitDx=0;exitDy=0;exitPerimeter=0;entryX=0.5;entryY=0;entryDx=0;entryDy=0;entryPerimeter=0;" edge="1" parent="1" source="WNfm-_aolDYGCpfeILNF-27" target="SjWQLmBXlMWJYxcjkjNw-1">
          <mxGeometry width="50" height="50" relative="1" as="geometry">
            <mxPoint x="1790" y="270" as="sourcePoint" />
            <mxPoint x="1840" y="220" as="targetPoint" />
          </mxGeometry>
        </mxCell>
        <mxCell id="SjWQLmBXlMWJYxcjkjNw-3" value="" style="endArrow=classic;html=1;rounded=0;exitX=1;exitY=0.5;exitDx=0;exitDy=0;" edge="1" parent="1" source="WNfm-_aolDYGCpfeILNF-31">
          <mxGeometry width="50" height="50" relative="1" as="geometry">
            <mxPoint x="1790" y="270" as="sourcePoint" />
            <mxPoint x="1490" y="310" as="targetPoint" />
          </mxGeometry>
        </mxCell>
      </root>
    </mxGraphModel>
  </diagram>
</mxfile>
